<?xml version="1.0" standalone="no"?><!DOCTYPE svg PUBLIC "-//W3C//DTD SVG 1.1//EN" "http://www.w3.org/Graphics/SVG/1.1/DTD/svg11.dtd"><svg t="1714724960909" class="icon" viewBox="0 0 1024 1024" version="1.1" xmlns="http://www.w3.org/2000/svg" p-id="1056" xmlns:xlink="http://www.w3.org/1999/xlink" width="200" height="200"><path d="M512 69.270588c244.525176 0 442.729412 198.204235 442.729412 442.729412 0 55.235765-10.119529 109.086118-29.605647 159.533176a21.082353 21.082353 0 0 1-39.333647-15.209411c17.618824-45.628235 26.774588-94.328471 26.774588-144.323765 0-221.214118-179.350588-400.564706-400.564706-400.564706-51.139765 0-100.924235 9.577412-147.425882 28.009412a401.92 401.92 0 0 0-226.123294 227.629176A399.510588 399.510588 0 0 0 111.435294 512c0 221.214118 179.350588 400.564706 400.564706 400.564706 49.814588 0 98.364235-9.095529 143.841882-26.593882a21.082353 21.082353 0 0 1 15.119059 39.363764c-50.296471 19.335529-103.936 29.394824-158.960941 29.394824-244.525176 0-442.729412-198.204235-442.729412-442.729412 0-55.476706 10.24-109.537882 29.876706-160.195765a444.084706 444.084706 0 0 1 249.886118-251.572706A441.584941 441.584941 0 0 1 512 69.270588z" fill="#3D3C3B" p-id="1057"></path><path d="M512 512m-150.588235 0a150.588235 150.588235 0 1 0 301.17647 0 150.588235 150.588235 0 1 0-301.17647 0Z" fill="#FA8E00" p-id="1058"></path><path d="M512 340.329412a171.670588 171.670588 0 1 1 0 343.341176 171.670588 171.670588 0 0 1 0-343.341176z m0 42.164706a129.505882 129.505882 0 1 0 0 259.011764 129.505882 129.505882 0 0 0 0-259.011764zM716.830118 650.691765a66.258824 66.258824 0 1 1 0 132.517647 66.258824 66.258824 0 0 1 0-132.517647z m0 42.164706a24.094118 24.094118 0 1 0 0 48.188235 24.094118 24.094118 0 0 0 0-48.188235z" fill="#3D3C3B" p-id="1059"></path><path d="M542.117647 219.858824c177.995294 0 322.258824 144.263529 322.258824 322.258823v240.941177a81.317647 81.317647 0 0 1-81.317647 81.317647h-240.941177c-177.995294 0-322.258824-144.263529-322.258823-322.258824 0-177.995294 144.263529-322.258824 322.258823-322.258823z m0 42.164705a280.094118 280.094118 0 1 0 0 560.188236h240.941177a39.152941 39.152941 0 0 0 39.152941-39.152941v-240.941177A280.094118 280.094118 0 0 0 542.117647 262.023529z" fill="#3D3C3B" p-id="1060"></path></svg>